# Blender 4.0.2
# www.blender.org
mtllib battery.mtl
o Plane
v 0.678861 2.443491 0.000000
v -0.333126 2.479945 0.000000
v -0.377231 -2.479945 -0.000000
v 0.090405 -2.479945 -0.000000
v -1.193872 2.237371 0.000000
v -1.458164 1.927512 0.000000
v -1.804479 -1.736127 -0.000000
v -1.330575 -2.200917 -0.000000
v 0.956921 -2.328506 -0.000000
v 1.394369 -2.018647 -0.000000
v 1.740684 1.973078 0.000000
vn -0.0000 -0.0000 1.0000
vt 0.638708 1.000000
vt 0.432836 1.000000
vt 0.196822 0.868408
vt 0.136186 0.149967
vt 0.518227 0.000000
vt 0.805016 0.148129
vt 0.259295 0.951093
vt 0.423944 0.000000
vt 0.231733 0.056257
vt 0.749893 0.037882
vt 0.858302 0.936393
s 0
f 1/1/1 2/2/1 6/3/1
f 6/3/1 7/4/1 4/5/1
f 1/1/1 6/3/1 10/6/1
f 2/2/1 5/7/1 6/3/1
f 4/5/1 7/4/1 3/8/1
f 7/4/1 8/9/1 3/8/1
f 4/5/1 9/10/1 10/6/1
f 10/6/1 11/11/1 1/1/1
f 10/6/1 6/3/1 4/5/1
