# Blender 4.0.2
# www.blender.org
mtllib Blendy-up.mtl
o Plane
v 1.000000 1.000000 -0.000000
v -1.000000 1.000000 -0.000000
v 1.091135 -0.946838 0.000000
v 1.102092 -0.939202 0.000000
v -1.000000 -1.371195 0.000000
v -1.000000 -1.745529 0.000000
v 1.088259 -0.885396 0.000000
v 1.054781 -0.170239 0.000000
v 1.029181 0.376633 -0.000000
v 1.003764 0.919604 -0.000000
v 1.205055 2.051044 -0.000000
v 1.205055 2.103064 -0.000000
v 0.183501 2.511328 -0.000000
v -0.413132 2.511328 -0.000000
v -1.240882 0.279098 -0.000000
v -1.000000 2.211910 -0.000000
v -1.000000 0.973172 -0.000000
v -1.000000 0.388535 -0.000000
v -1.000000 0.120863 -0.000000
v -0.992675 -0.240262 0.000000
v 1.063598 1.000000 -0.000000
v 1.000000 2.300798 -0.000000
v -0.812106 -0.995223 0.000000
v -1.174676 2.045887 -0.000000
v 1.133117 -1.301369 0.000000
v -0.188986 -2.177165 0.000000
v 1.047642 0.978561 -0.000000
v 1.107284 -0.959398 0.000000
v 1.061643 -1.344979 0.000000
v 0.988882 -0.498836 0.000000
v 0.931746 -0.252714 0.000000
v 0.931746 0.296664 -0.000000
v 0.883401 0.169209 -0.000000
v 0.949326 0.103283 -0.000000
v 0.830661 -0.028568 -0.000000
v 0.711995 -0.081308 0.000000
v 0.646069 -0.028568 -0.000000
v 0.632152 0.098888 -0.000000
v 0.536193 0.199974 -0.000000
v 0.698810 0.309849 -0.000000
v 0.729575 0.393355 -0.000000
v 0.720785 0.648267 -0.000000
v -0.852636 0.709798 -0.000000
v -0.729575 0.604317 -0.000000
v -0.720785 0.283479 -0.000000
v -0.562564 0.160419 -0.000000
v -0.663649 0.068123 -0.000000
v -0.668045 -0.076913 0.000000
v -0.725180 -0.094493 0.000000
v -0.868019 -0.039555 0.000000
v -0.918561 0.227077 -0.000000
v -0.937606 0.318640 -0.000000
v -0.813081 -0.366985 0.000000
v -0.733970 -0.393355 0.000000
v -0.716390 -0.472466 0.000000
v -1.059202 1.078980 -0.000000
v -1.149300 0.416795 -0.000000
v -1.177868 0.151628 -0.000000
v -1.103153 -0.076913 0.000000
v 0.285677 -2.107417 0.000000
v 0.487848 -2.059071 0.000000
v 0.659254 -1.940406 0.000000
v 0.826266 -1.808555 0.000000
v 0.896586 -1.681099 0.000000
v 0.909771 -1.465743 0.000000
v 0.893949 -1.428824 0.000000
v -0.830660 -1.096560 0.000000
v -0.839451 -1.180066 0.000000
v -0.769130 -1.909641 0.000000
v -0.404343 -2.111812 0.000000
v 1.085573 1.140510 -0.000000
v 1.138313 -0.006593 -0.000000
v 1.177868 0.134048 -0.000000
v 1.235003 0.213159 -0.000000
v 1.230608 0.340615 -0.000000
v 1.129523 0.388960 -0.000000
v -1.116338 -1.509693 0.000000
v -1.133918 -1.650334 0.000000
v 0.852636 2.423859 -0.000000
v -0.795500 2.406279 -0.000000
vn -0.0000 -0.0000 1.0000
vt 0.045290 0.459998
vt 0.106141 0.526809
vt 0.000000 0.601097
vt 0.071569 1.000000
vt 0.922208 1.000000
vt 0.358683 1.000000
vt 0.837915 0.540727
vt 0.865837 0.549141
vt 0.870702 0.698846
vt 0.000000 1.000000
vt 0.196215 0.525513
vt 0.862352 0.738658
vt 0.000000 0.000000
vt 0.000000 0.041296
vt 0.706566 0.000000
vt 0.897750 0.000000
vt 1.000000 0.000000
vt 0.145979 0.179583
vt 0.866534 0.198860
vt 0.245652 0.408033
vt 0.146814 0.310090
vt 0.908682 0.526521
vt 1.000000 0.621962
vt 0.785571 0.422293
vt 1.000000 0.439568
vt 0.951412 0.341218
vt 1.000000 0.305732
vt 1.000000 0.013414
vt 0.927247 0.145643
vt 0.835398 0.468023
vt 1.000000 0.458455
vt 0.165110 0.552967
vt 0.163651 0.352691
vt 0.000000 0.968440
vt 0.000000 0.305454
vt 0.000000 0.320195
vt 0.000000 0.445115
vt 1.000000 1.000000
vt 0.191572 0.460358
vt 0.862925 0.359738
vt 0.909067 0.684966
vt 0.910147 1.000000
vt 0.039453 0.769190
vt 0.061759 0.642476
vt 0.049575 0.360679
vt 0.076082 0.425769
vt 0.918302 1.000000
vt 0.886168 1.000000
vt 0.703036 1.000000
vt 0.594493 1.000000
vt 0.258986 1.000000
vt 0.177025 1.000000
vt 0.098738 1.000000
vt 0.068624 1.000000
vt 0.069729 1.000000
vt 0.408250 0.000000
vt 0.073682 0.000000
vt 0.949307 0.385222
vt 1.000000 0.294511
vt 1.000000 0.338375
vt 1.000000 0.564070
vt 0.000000 0.521693
vt 0.000000 0.399256
vt 0.000000 0.325036
vt 1.000000 1.000000
s 0
g off
f 34/1/1 35/2/1 8/3/1
f 66/4/1 68/5/1 60/6/1
f 48/7/1 49/8/1 54/9/1
f 29/10/1 28/10/1 3/10/1
f 37/11/1 48/7/1 55/12/1
f 1/13/1 10/14/1 27/13/1
f 14/15/1 80/16/1 16/17/1
f 42/18/1 44/19/1 39/20/1
f 41/21/1 42/18/1 39/20/1
f 49/8/1 50/22/1 20/23/1
f 1/13/1 2/17/1 42/18/1
f 10/14/1 1/13/1 42/18/1
f 39/20/1 46/24/1 37/11/1
f 19/25/1 52/26/1 18/27/1
f 2/17/1 17/28/1 43/29/1
f 56/17/1 16/17/1 24/17/1
f 46/24/1 47/30/1 48/7/1
f 19/25/1 18/27/1 58/31/1
f 44/19/1 46/24/1 39/20/1
f 48/7/1 54/9/1 55/12/1
f 36/32/1 37/11/1 55/12/1
f 46/24/1 48/7/1 37/11/1
f 71/13/1 11/13/1 22/13/1
f 40/33/1 41/21/1 39/20/1
f 2/17/1 43/29/1 44/19/1
f 4/10/1 7/34/1 3/10/1
f 76/35/1 9/36/1 73/37/1
f 77/38/1 6/38/1 5/38/1
f 42/18/1 2/17/1 44/19/1
f 37/11/1 38/39/1 39/20/1
f 44/19/1 45/40/1 46/24/1
f 50/22/1 19/25/1 20/23/1
f 20/23/1 53/41/1 49/8/1
f 53/41/1 54/9/1 49/8/1
f 55/12/1 23/42/1 30/43/1
f 23/42/1 3/10/1 7/34/1
f 30/43/1 23/42/1 7/34/1
f 31/44/1 8/3/1 35/2/1
f 8/3/1 9/36/1 34/1/1
f 30/43/1 31/44/1 36/32/1
f 55/12/1 30/43/1 36/32/1
f 35/2/1 36/32/1 31/44/1
f 9/36/1 32/45/1 34/1/1
f 32/45/1 33/46/1 34/1/1
f 29/10/1 3/10/1 66/4/1
f 3/10/1 23/42/1 66/4/1
f 23/42/1 67/47/1 66/4/1
f 67/47/1 68/5/1 66/4/1
f 68/5/1 5/38/1 69/48/1
f 5/38/1 6/38/1 69/48/1
f 69/48/1 70/49/1 68/5/1
f 70/49/1 26/50/1 68/5/1
f 26/50/1 60/6/1 68/5/1
f 60/6/1 61/51/1 62/52/1
f 62/52/1 63/53/1 66/4/1
f 63/53/1 64/54/1 66/4/1
f 64/54/1 65/55/1 66/4/1
f 60/6/1 62/52/1 66/4/1
f 29/10/1 25/10/1 28/10/1
f 16/17/1 2/17/1 14/15/1
f 2/17/1 1/13/1 13/56/1
f 14/15/1 2/17/1 13/56/1
f 1/13/1 22/13/1 13/56/1
f 22/13/1 79/57/1 13/56/1
f 19/25/1 51/58/1 52/26/1
f 56/17/1 2/17/1 16/17/1
f 57/59/1 15/60/1 18/27/1
f 15/60/1 58/31/1 18/27/1
f 58/31/1 59/61/1 19/25/1
f 59/61/1 20/23/1 19/25/1
f 11/13/1 12/13/1 22/13/1
f 22/13/1 1/13/1 71/13/1
f 1/13/1 21/13/1 71/13/1
f 9/36/1 8/3/1 72/62/1
f 73/37/1 74/63/1 76/35/1
f 74/63/1 75/64/1 76/35/1
f 9/36/1 72/62/1 73/37/1
f 77/38/1 78/65/1 6/38/1
