# Blender 4.0.2
# www.blender.org
mtllib boss_right.mtl
o Plane
v -1.270495 1.997332 -0.000000
v -1.238828 1.262176 -0.000000
v 0.698575 2.497583 -0.000000
v -0.332448 2.512424 -0.000000
v 0.991267 -1.636526 0.000000
v 1.283038 1.982378 -0.000000
v 1.171340 2.152926 -0.000000
v -0.098619 -2.037247 0.000000
v 0.104736 -2.048955 0.000000
v 0.744272 0.299987 -0.000000
v 1.017678 0.755663 -0.000000
v -1.010083 2.365720 -0.000000
v -0.599974 0.246825 -0.000000
v -0.896164 -1.682207 0.000000
vn -0.0000 -0.0000 1.0000
vt 0.000000 0.139799
vt 0.000000 0.083884
vt 0.089648 0.413196
vt 1.000000 0.114539
vt 1.000000 0.267083
vt 0.628904 0.000000
vt 0.826367 0.483510
vt 0.515367 1.000000
vt 0.000000 0.906096
vt 0.238061 0.000000
vt 0.887799 0.034049
vt 0.957258 0.911160
vt 0.199160 0.490004
vt 0.423689 1.000000
s 0
f 6/1/1 7/2/1 11/3/1
f 1/4/1 2/5/1 4/6/1
f 13/7/1 8/8/1 5/9/1
f 3/10/1 4/6/1 11/3/1
f 11/3/1 2/5/1 13/7/1
f 4/6/1 12/11/1 1/4/1
f 7/2/1 3/10/1 11/3/1
f 13/7/1 14/12/1 8/8/1
f 4/6/1 2/5/1 11/3/1
f 10/13/1 11/3/1 13/7/1
f 9/14/1 5/9/1 8/8/1
f 5/9/1 10/13/1 13/7/1
