# Blender 4.0.2
# www.blender.org
mtllib cactus.mtl
o Plane
v 0.708367 2.430824 -0.000000
v -1.555925 0.817729 -0.000000
v 1.729082 -0.498756 -0.000000
v -1.182271 -2.330575 0.000000
v -1.379484 0.589040 -0.000000
v -1.747944 -2.144007 0.000000
v -0.653361 2.480434 -0.000000
v 1.010154 1.040224 -0.000000
v -0.622668 -2.479501 0.000000
vn -0.0000 -0.0000 1.0000
vt 1.000000 0.374861
vt 1.000000 0.704099
vt 0.000000 0.511369
vt 0.000000 0.000000
vt 0.443632 0.000000
vt 0.369534 1.000000
vt 0.000000 1.000000
vt 1.000000 1.000000
vt 1.000000 0.000000
s 0
f 5/1/1 6/2/1 8/3/1
f 8/3/1 1/4/1 7/5/1
f 8/3/1 9/6/1 3/7/1
f 9/6/1 6/2/1 4/8/1
f 5/1/1 7/5/1 2/9/1
f 7/5/1 5/1/1 8/3/1
f 8/3/1 6/2/1 9/6/1
