# Blender 4.0.2
# www.blender.org
mtllib cherry.mtl
o Plane
v 1.619720 1.902239 -0.000000
v -1.792877 1.747309 -0.000000
v 0.471415 -1.054681 0.000000
v -1.601493 -2.367029 0.000000
v -0.120378 2.585702 -0.000000
v 1.872187 1.191357 -0.000000
v -0.918294 -2.485123 0.000000
v -1.796229 0.809764 -0.000000
v -0.998152 -1.336376 0.000000
vn -0.0000 -0.0000 1.0000
vt 0.473385 0.000000
vt 0.000000 0.557122
vt 0.000000 0.000000
vt 1.000000 0.390986
vt 1.000000 0.685758
vt 0.000000 1.000000
vt 0.494458 1.000000
vt 1.000000 1.000000
vt 1.000000 0.000000
s 0
f 5/1/1 6/2/1 1/3/1
f 5/1/1 8/4/1 6/2/1
f 8/4/1 9/5/1 3/6/1
f 7/7/1 9/5/1 4/8/1
f 8/4/1 5/1/1 2/9/1
f 3/6/1 6/2/1 8/4/1
f 9/5/1 7/7/1 3/6/1
