# Blender 4.0.2
# www.blender.org
mtllib grape.mtl
o Plane
v 2.467278 1.865785 -0.000000
v -2.376143 0.726594 -0.000000
v 1.865785 0.202985 -0.000000
v -1.956921 -1.829331 0.000000
v 0.382854 1.625882 -0.000000
v 2.459044 1.322236 -0.000000
v -0.131264 -0.961734 0.000000
v -2.487192 -0.832441 0.000000
vn -0.0000 -0.0000 1.0000
vt 0.000000 0.000000
vt 0.384762 0.000000
vt 0.000000 0.487923
vt 1.000000 0.000000
vt 1.000000 0.489125
vt 0.515870 1.000000
vt 0.000000 1.000000
vt 1.000000 1.000000
s 0
f 1/1/1 5/2/1 6/3/1
f 6/3/1 5/2/1 2/4/1 8/5/1 7/6/1 3/7/1
f 7/6/1 8/5/1 4/8/1
