# Blender 4.0.2
# www.blender.org
mtllib minion-right.mtl
o Plane
v 1.025247 -1.006329 -0.000000
v 1.137932 -1.006329 -0.000000
v -0.542706 -0.955698 -0.000000
v -0.356319 2.382220 0.000000
v 0.300346 2.477153 0.000000
v -1.195731 -0.496846 -0.000000
v 0.270714 -2.512594 -0.000000
v -0.215605 -2.512594 -0.000000
v 0.971642 0.490455 0.000000
v -0.332119 1.025315 0.000000
v 0.730621 0.993671 0.000000
v 1.137932 -1.006329 -0.000000
v 1.025247 -1.457629 -0.000000
v -1.092254 -0.681126 -0.000000
v -1.041623 -0.155088 -0.000000
v 0.347252 -1.579079 -0.000000
v 0.273544 -1.819575 -0.000000
v 0.655482 -2.237279 -0.000000
v -0.644448 -2.338541 -0.000000
v -0.456078 -1.756287 -0.000000
v 1.124529 -1.439844 -0.000000
v -0.811965 -0.522161 -0.000000
v -0.966080 -0.750000 -0.000000
v -1.038664 0.091737 0.000000
v -0.934800 0.382864 0.000000
v -0.738257 0.344891 0.000000
v 0.561673 2.351137 0.000000
v 0.816299 2.009379 0.000000
v 0.903407 1.294218 0.000000
v 0.709088 1.060051 0.000000
v -0.669012 1.762553 0.000000
vn -0.0000 -0.0000 -1.0000
vt 0.867633 0.242084
vt 1.000000 0.419292
vt 0.832823 0.675610
vt 0.356332 0.000000
vt 0.585999 0.000000
vt 0.354996 0.000000
vt 0.661945 1.000000
vt 0.000000 0.545869
vt 1.000000 0.162601
vt 0.000000 0.000000
vt 0.940414 0.128164
vt 0.747384 0.000000
vt 0.821172 0.000000
vt 0.320187 0.000000
vt 0.139139 1.000000
vt 0.962565 0.435114
vt 0.829659 1.000000
vt 0.671438 1.000000
vt 0.098677 1.000000
vt 0.788522 0.000000
vt 1.000000 0.235755
vt 0.962565 0.678774
vt 0.174623 0.000000
vt 0.342338 1.000000
vt 0.218925 1.000000
vt 0.057540 1.000000
vt 0.149308 1.000000
s 0
g off
f 22/1/1 15/2/1 26/3/1
f 7/4/1 8/5/1 17/6/1
f 26/3/1 10/7/1 9/8/1
f 22/1/1 14/9/1 15/2/1
f 1/10/1 9/8/1 2/10/1
f 22/1/1 23/11/1 14/9/1
f 20/12/1 3/13/1 16/14/1
f 20/12/1 16/14/1 17/6/1
f 9/8/1 22/1/1 26/3/1
f 21/10/1 1/10/1 12/10/1
f 9/8/1 1/10/1 22/1/1
f 1/10/1 3/13/1 22/1/1
f 10/7/1 11/15/1 9/8/1
f 15/2/1 24/16/1 26/3/1
f 31/17/1 4/18/1 28/19/1
f 8/5/1 19/20/1 20/12/1
f 6/21/1 15/2/1 14/9/1
f 24/16/1 25/22/1 26/3/1
f 3/13/1 1/10/1 16/14/1
f 8/5/1 20/12/1 17/6/1
f 17/6/1 18/23/1 7/4/1
f 1/10/1 13/10/1 16/14/1
f 21/10/1 13/10/1 1/10/1
f 4/18/1 5/24/1 28/19/1
f 5/24/1 27/25/1 28/19/1
f 28/19/1 29/26/1 30/27/1
f 30/27/1 11/15/1 10/7/1
f 28/19/1 30/27/1 10/7/1
f 31/17/1 28/19/1 10/7/1
