# Blender 4.0.2
# www.blender.org
mtllib Minion.mtl
o Plane
v -1.000000 1.000000 0.000000
v 1.000000 1.000000 0.000000
v -1.193411 -0.061525 -0.000000
v -1.174851 0.143485 0.000000
v -1.330579 0.994667 0.000000
v 0.243140 2.406707 0.000000
v 1.000000 1.000000 0.000000
v 1.302336 1.033333 0.000000
v -1.000000 1.000000 0.000000
v -0.422039 2.364527 0.000000
v 1.393121 -1.003840 -0.000000
v -1.029146 -0.196136 -0.000000
v -1.306768 -1.013824 -0.000000
v -1.145838 -0.170430 -0.000000
v -1.195399 1.097525 0.000000
v 0.994913 1.259830 0.000000
v -0.887461 1.670575 0.000000
v -0.980000 1.232200 0.000000
v 1.271369 1.078961 0.000000
v -0.315625 2.424505 0.000000
v 1.429867 0.482670 0.000000
v 1.429867 0.798794 0.000000
v 1.000000 1.252200 0.000000
v 1.273809 0.226044 0.000000
v -0.637382 1.389347 0.000000
v -0.671430 1.918542 0.000000
v 0.650746 1.918030 0.000000
v 0.849966 1.738138 0.000000
v 0.835899 1.645141 0.000000
v 0.666799 1.409775 0.000000
v -0.830780 1.889421 0.000000
v 0.810669 1.880242 0.000000
v 0.026329 1.000000 0.000000
v -0.806720 1.519599 0.000000
v 0.464376 2.265503 0.000000
v 0.764172 1.502814 0.000000
v -0.532285 2.280410 0.000000
v 0.006520 2.469419 0.000000
v 0.013612 1.729534 0.000000
v -0.853223 1.579399 0.000000
v -0.885153 1.778630 0.000000
v -0.687717 1.483759 0.000000
v 0.589626 2.107853 0.000000
v 0.330288 2.365807 0.000000
v -0.165020 2.464101 0.000000
v 0.143481 2.443468 0.000000
v 0.814038 1.576040 0.000000
v 0.730850 1.926321 0.000000
v 0.832166 1.802506 0.000000
v -0.675658 1.984105 0.000000
v -0.645942 2.086693 0.000000
v -0.597488 2.184617 0.000000
v 0.703967 1.445288 0.000000
v -0.774245 1.922239 0.000000
v -0.722955 1.867741 0.000000
v -0.713055 1.931625 0.000000
v -0.778425 1.773855 0.000000
v -0.891161 1.711185 0.000000
v -0.875209 1.625920 0.000000
v -0.858650 1.846245 0.000000
v -0.744111 1.492778 0.000000
v -0.696941 1.547693 0.000000
v -1.455357 0.777740 0.000000
v -1.460549 0.510992 0.000000
v -1.376666 0.343160 0.000000
v -1.320591 -1.124464 -0.000000
v -1.004608 -1.309549 -0.000000
v 1.000000 -1.511530 -0.000000
v 1.400801 -1.098528 -0.000000
v -0.526540 -2.480928 -0.000000
v -0.117856 -2.470262 -0.000000
v 0.316221 -2.453195 -0.000000
v 0.541071 -2.459595 -0.000000
v 1.086876 -1.227375 -0.000000
v 0.818080 -1.834085 -0.000000
v 0.637603 -2.037603 -0.000000
v 0.747041 -2.283039 -0.000000
v 0.722401 -2.398985 -0.000000
v 0.170943 -2.393224 -0.000000
v 0.125468 -1.581858 -0.000000
v 0.108295 -1.396741 -0.000000
v 0.019976 -1.404225 -0.000000
v 0.002803 -1.597627 -0.000000
v -0.014655 -1.900538 -0.000000
v 0.009345 -2.199521 -0.000000
v -0.002708 -2.383838 -0.000000
v -0.656245 -2.402504 -0.000000
v -0.655178 -2.214880 -0.000000
v -0.561740 -2.023524 -0.000000
v -0.879175 -1.354093 -0.000000
v -1.080026 -0.331494 -0.000000
v -1.124291 -0.459706 -0.000000
v 1.268660 0.085886 0.000000
v 1.259946 -0.033288 -0.000000
v 1.208038 -0.112075 -0.000000
v 1.087557 -0.141216 -0.000000
v 1.144475 -0.286588 -0.000000
v 1.302935 0.996367 0.000000
v 1.440071 0.607266 0.000000
v 1.373921 0.364053 0.000000
v -0.047672 -2.437136 -0.000000
v -0.601009 -2.103945 -0.000000
v -0.336822 -2.480928 -0.000000
v -0.690964 -2.298179 -0.000000
v -0.608681 -2.436828 -0.000000
v 0.137595 -2.299217 -0.000000
v 0.713210 -2.180717 -0.000000
v 0.234330 -2.430228 -0.000000
v 0.650063 -2.429679 -0.000000
v 0.415039 -2.461576 -0.000000
v 0.748993 -2.330678 -0.000000
vn -0.0000 -0.0000 -1.0000
vn -0.0000 -0.0000 1.0000
vt 0.159767 0.394664
vt 0.000000 0.000000
vt 0.513165 1.000000
vt 0.215658 1.000000
vt 1.000000 1.000000
vt 0.021664 0.434848
vt 0.019933 0.696770
vt 0.113172 1.000000
vt 0.119408 0.918992
vt 0.141865 1.000000
vt 0.000000 0.739833
vt 0.000000 0.907264
vt 0.061405 1.000000
vt 0.000000 1.000000
vt 0.000000 0.177770
vt 0.000000 0.441152
vt 0.000000 0.059565
vt 0.000000 0.563413
vt 0.032317 1.000000
vt 0.166142 1.000000
vt 0.000000 0.837575
vt 0.550993 0.399798
vt 1.000000 0.677397
vt 1.000000 0.725595
vt 1.000000 0.612096
vt 1.000000 0.000000
s 0
f 39/1/1 43/2/1 27/2/1
f 26/2/1 50/2/1 39/1/1
f 39/1/1 33/3/1 25/4/1
f 19/5/2 7/5/2 8/5/2
f 39/1/1 53/2/1 30/2/1
f 36/2/1 39/1/1 47/2/1
f 32/2/1 39/1/1 48/2/1
f 35/2/1 39/1/1 44/2/1
f 38/2/1 39/1/1 45/2/1
f 37/2/1 39/1/1 52/2/1
f 55/6/1 39/1/1 57/7/1
f 34/8/1 62/9/1 61/10/1
f 43/2/1 39/1/1 35/2/1
f 41/11/1 57/7/1 58/12/1
f 40/13/1 62/9/1 34/8/1
f 39/1/1 6/2/1 44/2/1
f 46/2/1 39/1/1 38/2/1
f 1/14/1 18/14/1 25/4/1
f 39/1/1 20/2/1 45/2/1
f 10/2/1 39/1/1 37/2/1
f 39/1/1 27/2/1 48/2/1
f 39/1/1 29/2/1 47/2/1
f 28/2/1 39/1/1 49/2/1
f 52/2/1 39/1/1 51/2/1
f 51/2/1 39/1/1 50/2/1
f 39/1/1 55/6/1 26/2/1
f 49/2/1 39/1/1 32/2/1
f 53/2/1 39/1/1 36/2/1
f 54/15/1 55/6/1 31/16/1
f 56/17/1 55/6/1 54/15/1
f 60/18/1 57/7/1 41/11/1
f 57/7/1 17/14/1 58/12/1
f 57/7/1 40/13/1 59/19/1
f 62/9/1 42/20/1 61/10/1
f 55/6/1 56/17/1 26/2/1
f 57/7/1 59/19/1 17/14/1
f 39/1/1 10/2/1 20/2/1
f 33/3/1 1/14/1 25/4/1
f 39/1/1 28/2/1 29/2/1
f 19/5/1 2/5/1 16/5/1
f 31/16/1 55/6/1 57/7/1
f 40/13/1 39/1/1 62/9/1
f 39/1/1 46/2/1 6/2/1
f 25/4/1 42/20/1 39/1/1
f 16/2/1 2/5/1 30/2/1
f 2/5/1 33/3/1 30/2/1
f 33/3/1 39/1/1 30/2/1
f 60/18/1 31/16/1 57/7/1
f 19/5/2 16/5/2 7/5/2
f 7/5/2 23/2/2 2/2/2
f 8/5/2 7/5/2 2/2/2
f 57/7/1 39/1/1 40/13/1
f 62/9/1 39/1/1 42/20/1
f 19/5/1 8/2/1 2/5/1
f 16/2/2 30/2/2 23/2/2
f 7/5/1 16/2/1 23/2/1
f 53/2/2 36/2/2 27/2/2
f 36/2/2 47/2/2 27/2/2
f 47/2/2 29/2/2 27/2/2
f 29/2/2 28/2/2 49/2/2
f 27/2/2 29/2/2 49/2/2
f 49/2/2 32/2/2 48/2/2
f 27/2/2 49/2/2 48/2/2
f 27/2/2 43/2/2 35/2/2
f 35/2/2 44/2/2 6/2/2
f 6/2/2 46/2/2 26/2/2
f 46/2/2 38/2/2 26/2/2
f 38/2/2 45/2/2 26/2/2
f 45/2/2 20/2/2 10/2/2
f 26/2/2 45/2/2 10/2/2
f 10/2/2 37/2/2 52/2/2
f 26/2/2 10/2/2 52/2/2
f 52/2/2 51/2/2 26/2/2
f 51/2/2 50/2/2 26/2/2
f 26/2/2 56/17/2 54/15/2
f 54/15/2 31/16/2 60/18/2
f 60/18/2 41/11/2 26/2/2
f 41/11/2 58/12/2 26/2/2
f 58/12/2 17/14/2 26/2/2
f 17/14/2 59/19/2 26/2/2
f 59/19/2 40/13/2 42/20/2
f 40/13/2 34/8/2 61/10/2
f 42/20/2 40/13/2 61/10/2
f 25/4/2 18/14/2 4/2/2
f 18/14/2 15/14/2 4/2/2
f 15/14/2 5/14/2 65/2/2
f 65/2/2 5/14/2 63/21/2
f 59/19/2 42/20/2 26/2/2
f 65/2/2 63/21/2 64/2/2
f 42/20/2 25/4/2 26/2/2
f 26/2/2 54/15/2 60/18/2
f 35/2/2 6/2/2 27/2/2
f 27/2/2 6/2/2 26/2/2
f 15/14/2 65/2/2 4/2/2
f 4/2/2 3/2/2 12/2/2
f 3/2/2 14/2/2 12/2/2
f 26/2/2 25/4/2 27/2/2
f 30/2/2 53/2/2 27/2/2
f 27/2/2 25/4/2 30/2/2
f 25/4/2 4/2/2 12/2/2
f 12/2/2 91/2/2 82/2/2
f 91/2/2 92/2/2 82/2/2
f 99/22/2 22/2/2 2/2/2
f 22/2/2 98/2/2 2/2/2
f 100/23/2 21/24/2 99/22/2
f 94/2/2 93/2/2 96/2/2
f 93/2/2 24/25/2 96/2/2
f 24/25/2 100/23/2 2/2/2
f 100/23/2 99/22/2 2/2/2
f 95/2/2 94/2/2 96/2/2
f 11/26/2 97/2/2 74/2/2
f 97/2/2 96/2/2 81/2/2
f 74/2/2 97/2/2 81/2/2
f 98/2/2 8/5/2 2/2/2
f 96/2/2 24/25/2 2/2/2
f 69/2/2 11/26/2 74/2/2
f 75/2/2 68/2/2 80/2/2
f 68/2/2 74/2/2 81/2/2
f 23/2/2 30/2/2 2/2/2
f 30/2/2 25/4/2 2/2/2
f 2/2/2 25/4/2 12/2/2
f 92/2/2 13/2/2 67/2/2
f 90/2/2 92/2/2 67/2/2
f 92/2/2 90/2/2 82/2/2
f 13/2/2 66/2/2 67/2/2
f 68/2/2 81/2/2 80/2/2
f 77/2/2 107/2/2 109/2/2
f 107/2/2 76/2/2 110/2/2
f 73/2/2 107/2/2 110/2/2
f 76/2/2 75/2/2 80/2/2
f 12/2/2 82/2/2 81/2/2
f 90/2/2 89/2/2 83/2/2
f 82/2/2 90/2/2 83/2/2
f 102/2/2 88/2/2 103/2/2
f 88/2/2 104/2/2 105/2/2
f 104/2/2 87/2/2 105/2/2
f 105/2/2 70/2/2 88/2/2
f 70/2/2 103/2/2 88/2/2
f 103/2/2 71/2/2 85/2/2
f 71/2/2 101/2/2 86/2/2
f 85/2/2 71/2/2 86/2/2
f 85/2/2 84/2/2 89/2/2
f 89/2/2 103/2/2 85/2/2
f 89/2/2 102/2/2 103/2/2
f 84/2/2 83/2/2 89/2/2
f 12/2/2 81/2/2 96/2/2
f 2/2/2 12/2/2 96/2/2
f 80/2/2 106/2/2 76/2/2
f 106/2/2 79/2/2 108/2/2
f 76/2/2 106/2/2 110/2/2
f 108/2/2 72/2/2 106/2/2
f 72/2/2 110/2/2 106/2/2
f 73/2/2 109/2/2 107/2/2
f 109/2/2 78/2/2 111/2/2
f 77/2/2 109/2/2 111/2/2
f 2/5/2 33/3/2 24/25/2
f 1/14/2 18/14/2 15/14/2
f 33/3/2 1/14/2 4/2/2
f 24/25/2 33/3/2 96/2/2
f 96/2/2 33/3/2 12/2/2
f 1/14/2 15/14/2 5/14/2
f 5/14/2 63/21/2 1/14/2
f 63/21/2 64/2/2 1/14/2
f 64/2/2 65/2/2 1/14/2
f 65/2/2 4/2/2 1/14/2
f 33/3/2 4/2/2 12/2/2
l 1 9
