# Blender 4.0.2
# www.blender.org
mtllib orange.mtl
o Plane
v -2.504695 2.504695 0.000000
v 0.448476 2.495582 0.000000
v -0.073710 -2.504695 -0.000000
v -0.829330 -1.982191 -0.000000
v -1.512845 -1.143747 -0.000000
v -1.804478 -0.287076 -0.000000
v -1.695116 0.779207 0.000000
v -0.874900 2.018646 0.000000
v 1.353304 2.504695 0.000000
v 0.012780 -2.504695 -0.000000
v 1.830147 2.429371 0.000000
vn -0.0000 -0.0000 1.0000
vt 0.497449 1.000000
vt 0.134657 0.015037
vt 0.198919 0.000000
vt 0.428666 0.000000
vt 0.723773 0.140690
vt 0.847484 0.359005
vt 0.514714 1.000000
vt 0.665555 0.895695
vt 0.802002 0.728321
vt 0.860219 0.557307
s 0
f 10/1/1 11/2/1 9/3/1
f 2/4/1 8/5/1 7/6/1
f 3/7/1 10/1/1 4/8/1
f 2/4/1 7/6/1 5/9/1
f 9/3/1 2/4/1 4/8/1
f 7/6/1 6/10/1 5/9/1
f 5/9/1 4/8/1 2/4/1
f 10/1/1 9/3/1 4/8/1
l 2 1
